<?xml version="1.0" encoding="UTF-8" standalone="no"?>
<!-- Created with Inkscape (http://www.inkscape.org/) -->

<svg
   xmlns:dc="http://purl.org/dc/elements/1.1/"
   xmlns:cc="http://creativecommons.org/ns#"
   xmlns:rdf="http://www.w3.org/1999/02/22-rdf-syntax-ns#"
   xmlns:svg="http://www.w3.org/2000/svg"
   xmlns="http://www.w3.org/2000/svg"
   xmlns:inkscape="http://www.inkscape.org/namespaces/inkscape"
   version="1.1"
   width="349.77499"
   height="50.737499"
   id="svg2"
   xml:space="preserve"><metadata
     id="metadata8"><rdf:RDF><cc:Work
         rdf:about=""><dc:format>image/svg+xml</dc:format><dc:type
           rdf:resource="http://purl.org/dc/dcmitype/StillImage" /></cc:Work></rdf:RDF></metadata><defs
     id="defs6"><clipPath
       id="clipPath18"><path
         d="m 0,0 2798,0 0,405.902 -2798,0 L 0,0 z"
         inkscape:connector-curvature="0"
         id="path20" /></clipPath></defs><g
     transform="matrix(1.25,0,0,-1.25,0,50.7375)"
     id="g10"><g
       transform="scale(0.1,0.1)"
       id="g12"><g
         id="g14"><g
           clip-path="url(#clipPath18)"
           id="g16"><path
             d="m 71.8008,307.227 c -10.1992,4 -15.8008,5.8 -26.1992,5.8 -11.2032,0 -24.3985,-4 -24.3985,-18.597 0,-26.801 60,-20.602 60,-66.602 0,-29.801 -23.0039,-41.601 -51.0039,-41.601 -9.7969,0 -19.3984,2.8 -28.59764,5.8 l 1.9961,18.602 C 10.4023,207.828 22.4023,203.828 32.6016,203.828 44,203.828 60,210.23 60,226.625 c 0,31.203 -60,22.602 -60,66.004 0,24.797 19.5977,38 44.8008,38 9.1992,0 20.1992,-1.602 29.7969,-5 l -2.7969,-18.402"
             inkscape:connector-curvature="0"
             id="path22"
             style="fill:#231f20;fill-opacity:1;fill-rule:nonzero;stroke:none" /><path
             d="m 160.801,275.43 -27,0 0,-55.801 c 0,-11.801 7.199,-18.203 15.801,-18.203 5.796,0 10,1.801 12.8,3.601 l 0,-16 c -4.203,-1.199 -10,-2.8 -16,-2.8 -19.398,0 -31.402,9.203 -31.402,29.601 l 0,59.602 -22.9961,0 0,15.199 22.9961,0 0,23.598 18.801,6.003 0,-29.601 27,0 0,-15.199"
             inkscape:connector-curvature="0"
             id="path24"
             style="fill:#231f20;fill-opacity:1;fill-rule:nonzero;stroke:none" /><path
             d="m 347.797,303.426 c -9.801,6.402 -20.399,9.601 -38.399,9.601 -32.203,0 -53.597,-23.398 -53.597,-54.601 0,-32.797 23.597,-54.598 52.597,-54.598 13.797,0 17.403,1.402 22.403,2.399 l 0,42.402 -29.399,0 0,16.398 49.399,0 0,-72.601 c -7.602,-2.598 -20.801,-6.199 -42.602,-6.199 -44.199,0 -73.597,28.402 -73.597,72.8 0,43 31.199,71.602 73.796,71.602 20.403,0 29.399,-3.004 41,-7 l -1.601,-20.203"
             inkscape:connector-curvature="0"
             id="path26"
             style="fill:#231f20;fill-opacity:1;fill-rule:nonzero;stroke:none" /><path
             d="m 460.598,211.625 c -4.602,-3.797 -19.004,-10.199 -31.403,-10.199 -17.804,0 -33.597,13.804 -33.597,34.004 l 72.797,0 c 0,32.797 -11,57.597 -45,57.597 -28.801,0 -47.797,-21.402 -47.797,-51.601 0,-33.199 16.593,-55.199 52.797,-55.199 16.8,0 25,4.003 32.203,6.601 l 0,18.797 z m -65,37.805 c 1.394,13.199 8.996,28.398 27.394,28.398 16.203,0 25.403,-12.801 25.403,-28.398 l -52.797,0"
             inkscape:connector-curvature="0"
             id="path28"
             style="fill:#231f20;fill-opacity:1;fill-rule:nonzero;stroke:none" /><path
             d="m 486.793,239.629 c 0,-29.199 21.199,-53.402 52,-53.402 30.602,0 51.805,24.203 51.805,53.402 0,31 -20.801,53.398 -51.805,53.398 -31.199,0 -52,-22.398 -52,-53.398 z m 20,0 c 0,19.398 11.801,38.199 32,38.199 20,0 31.805,-18.801 31.805,-38.199 0,-18.203 -9.801,-38.203 -31.805,-38.203 -22.199,0 -32,20 -32,38.203"
             inkscape:connector-curvature="0"
             id="path30"
             style="fill:#231f20;fill-opacity:1;fill-rule:nonzero;stroke:none" /><path
             d="m 615.793,290.629 17.602,0 0,-15.801 0.398,0 c 5,10.602 15.801,18.199 26.598,18.199 5.601,0 8.402,-0.601 12.402,-1.402 l 0,-16.797 c -3.398,1.399 -7.203,1.797 -10.398,1.797 -16.805,0 -27.801,-15.996 -27.801,-41.598 l 0,-46.398 -18.801,0 0,102"
             inkscape:connector-curvature="0"
             id="path32"
             style="fill:#231f20;fill-opacity:1;fill-rule:nonzero;stroke:none" /><path
             d="m 783.789,290.629 -17.398,0 0,-15.199 -0.399,0 c -5.601,10.996 -15.601,17.597 -33.597,17.597 -30.801,0 -45.602,-28 -45.602,-54.199 0,-26.402 14.398,-50.199 43.598,-50.199 13,0 26.203,5.199 34.199,15.801 l 0.398,0 0,-10 c 0,-21.602 -11.8,-35 -31.597,-35 -13.801,0 -22.399,2.597 -36.797,9.199 l -2.004,-17.402 c 16.402,-5.598 25.801,-7 36.601,-7 36.602,0 52.598,17.8 52.598,48.8 l 0,97.602 z m -48.598,-86.801 c -17.597,0 -28.398,16.801 -28.398,36 0,17.399 9.398,38 28.398,38 20,0 29.797,-18.199 29.797,-39.402 0,-18.996 -12.195,-34.598 -29.797,-34.598"
             inkscape:connector-curvature="0"
             id="path34"
             style="fill:#231f20;fill-opacity:1;fill-rule:nonzero;stroke:none" /><path
             d="m 893.988,211.625 c -4.597,-3.797 -19,-10.199 -31.398,-10.199 -17.801,0 -33.602,13.804 -33.602,34.004 l 72.805,0 c 0,32.797 -10.996,57.597 -45.008,57.597 -28.797,0 -47.797,-21.402 -47.797,-51.601 0,-33.199 16.602,-55.199 52.797,-55.199 16.805,0 25.008,4.003 32.203,6.601 l 0,18.797 z m -65,37.805 c 1.403,13.199 9,28.398 27.403,28.398 16.199,0 25.402,-12.801 25.402,-28.398 l -52.805,0"
             inkscape:connector-curvature="0"
             id="path36"
             style="fill:#231f20;fill-opacity:1;fill-rule:nonzero;stroke:none" /><path
             d="m 929.781,328.227 22.403,0 -17.598,-49 -17.199,0 12.394,49"
             inkscape:connector-curvature="0"
             id="path38"
             style="fill:#231f20;fill-opacity:1;fill-rule:nonzero;stroke:none" /><path
             d="m 966.988,208.629 c 7.391,-4.801 17.989,-7.203 23.387,-7.203 8.605,0 19.205,3.601 19.205,14.605 0,18.598 -44.205,16.996 -44.205,45.594 0,21.203 15.801,31.402 36.005,31.402 8.8,0 16,-1.8 23.4,-4 l -1.6,-16.398 c -4.2,2.601 -15.39,5.199 -19.8,5.199 -9.595,0 -18.005,-4 -18.005,-12.398 0,-20.801 44.205,-14.801 44.205,-47.403 0,-21.8 -17.4,-31.8 -35.6,-31.8 -9.601,0 -19.394,1 -28,5.597 l 1.008,16.805"
             inkscape:connector-curvature="0"
             id="path40"
             style="fill:#231f20;fill-opacity:1;fill-rule:nonzero;stroke:none" /><path
             d="m 1110.78,328.227 20,0 0,-58.399 66.8,0 0,58.399 20,0 0,-139.598 -20,0 0,63.598 -66.8,0 0,-63.598 -20,0 0,139.598"
             inkscape:connector-curvature="0"
             id="path42"
             style="fill:#231f20;fill-opacity:1;fill-rule:nonzero;stroke:none" /><path
             d="m 1328.57,211.625 c -4.6,-3.797 -18.99,-10.199 -31.4,-10.199 -17.79,0 -33.6,13.804 -33.6,34.004 l 72.81,0 c 0,32.797 -11,57.597 -45,57.597 -28.81,0 -47.81,-21.402 -47.81,-51.601 0,-33.199 16.6,-55.199 52.81,-55.199 16.79,0 25,4.003 32.19,6.601 l 0,18.797 z m -65,37.805 c 1.41,13.199 9,28.398 27.4,28.398 16.2,0 25.41,-12.801 25.41,-28.398 l -52.81,0"
             inkscape:connector-curvature="0"
             id="path44"
             style="fill:#231f20;fill-opacity:1;fill-rule:nonzero;stroke:none" /><path
             d="m 1367.38,267.426 c 7.6,6.402 19,10.402 29.59,10.402 18.81,0 25.2,-9 25.2,-26.601 -7.39,0.398 -12.59,0.398 -20,0.398 -19.4,0 -47.39,-7.996 -47.39,-33.598 0,-22.199 15.39,-31.8 37.39,-31.8 17.21,0 27.21,9.402 31.6,15.597 l 0.4,0 0,-13.195 17.6,0 c -0.39,2.996 -0.8,8.398 -0.8,20 l 0,42.199 c 0,27.801 -11.8,42.199 -40.99,42.199 -13.01,0 -24.2,-4 -33.6,-9.601 l 1,-16 z m 54.79,-39.199 c 0,-15.2 -9.79,-26.801 -28.4,-26.801 -8.6,0 -18.99,5.801 -18.99,16.601 0,18.004 25.2,19.602 35.39,19.602 4,0 8,-0.402 12,-0.402 l 0,-9"
             inkscape:connector-curvature="0"
             id="path46"
             style="fill:#231f20;fill-opacity:1;fill-rule:nonzero;stroke:none" /><path
             d="m 1471.18,188.629 18.7891,0 0,150 -18.7891,0 0,-150 z"
             inkscape:connector-curvature="0"
             id="path48"
             style="fill:#231f20;fill-opacity:1;fill-rule:nonzero;stroke:none" /><path
             d="m 1578.57,275.43 -26.99,0 0,-55.801 c 0,-11.801 7.18,-18.203 15.8,-18.203 5.79,0 10,1.801 12.79,3.601 l 0,-16 c -4.2,-1.199 -10,-2.8 -16,-2.8 -19.4,0 -31.4,9.203 -31.4,29.601 l 0,59.602 -23,0 0,15.199 23,0 0,23.598 18.81,6.003 0,-29.601 26.99,0 0,-15.199"
             inkscape:connector-curvature="0"
             id="path50"
             style="fill:#231f20;fill-opacity:1;fill-rule:nonzero;stroke:none" /><path
             d="m 1602.17,338.629 18.8,0 0,-62.598 0.39,0 c 6.81,10.793 18.61,16.996 32.81,16.996 26.4,0 38.2,-16.402 38.2,-43.8 l 0,-60.598 -18.8,0 0,52.797 c 0,23.804 -5.2,35.398 -21.6,36.402 -21.4,0 -31,-17.199 -31,-42 l 0,-47.199 -18.8,0 0,150"
             inkscape:connector-curvature="0"
             id="path52"
             style="fill:#231f20;fill-opacity:1;fill-rule:nonzero;stroke:none" /><path
             d="m 1789.17,273.426 c -7.2,3 -14.41,4.402 -20.41,4.402 -20.99,0 -32.8,-18.801 -32.8,-38.199 0,-18.203 9.81,-38.203 34.01,-38.203 6.39,0 14.4,2 20.2,5.801 l 1.4,-16.797 c -7.81,-3.606 -16.81,-4.203 -23.61,-4.203 -30.79,0 -52,24.203 -52,53.402 0,31 20.8,53.398 52,53.398 7.6,0 17.41,-1.8 22.81,-4 l -1.6,-15.601"
             inkscape:connector-curvature="0"
             id="path54"
             style="fill:#231f20;fill-opacity:1;fill-rule:nonzero;stroke:none" /><path
             d="m 1822.96,267.426 c 7.6,6.402 19.01,10.402 29.61,10.402 18.79,0 25.2,-9 25.2,-26.601 -7.4,0.398 -12.6,0.398 -20,0.398 -19.4,0 -47.39,-7.996 -47.39,-33.598 0,-22.199 15.39,-31.8 37.39,-31.8 17.2,0 27.2,9.402 31.6,15.597 l 0.4,0 0,-13.195 17.6,0 c -0.4,2.996 -0.8,8.398 -0.8,20 l 0,42.199 c 0,27.801 -11.8,42.199 -41.01,42.199 -12.99,0 -24.2,-4 -33.59,-9.601 l 0.99,-16 z m 54.81,-39.199 c 0,-15.2 -9.81,-26.801 -28.4,-26.801 -8.6,0 -19,5.801 -19,16.601 0,18.004 25.19,19.602 35.4,19.602 4,0 7.99,-0.402 12,-0.402 l 0,-9"
             inkscape:connector-curvature="0"
             id="path56"
             style="fill:#231f20;fill-opacity:1;fill-rule:nonzero;stroke:none" /><path
             d="m 1922.36,290.629 17.61,0 0,-15.801 0.4,0 c 5,10.602 15.8,18.199 26.6,18.199 5.59,0 8.4,-0.601 12.39,-1.402 l 0,-16.797 c -3.4,1.399 -7.2,1.797 -10.4,1.797 -16.8,0 -27.79,-15.996 -27.79,-41.598 l 0,-46.398 -18.81,0 0,102"
             inkscape:connector-curvature="0"
             id="path58"
             style="fill:#231f20;fill-opacity:1;fill-rule:nonzero;stroke:none" /><path
             d="m 2078.35,211.625 c -4.6,-3.797 -18.99,-10.199 -31.38,-10.199 -17.81,0 -33.62,13.804 -33.62,34.004 l 72.82,0 c 0,32.797 -11.01,57.597 -45,57.597 -28.81,0 -47.82,-21.402 -47.82,-51.601 0,-33.199 16.62,-55.199 52.82,-55.199 16.79,0 25,4.003 32.18,6.601 l 0,18.797 z m -65,37.805 c 1.41,13.199 9.01,28.398 27.41,28.398 16.21,0 25.41,-12.801 25.41,-28.398 l -52.82,0"
             inkscape:connector-curvature="0"
             id="path60"
             style="fill:#231f20;fill-opacity:1;fill-rule:nonzero;stroke:none" /><path
             d="m 2205.83,166.152 592.391,0 0,239.75 -592.391,0 0,-239.75 z"
             inkscape:connector-curvature="0"
             id="path62"
             style="fill:#1478c7;fill-opacity:1;fill-rule:nonzero;stroke:none" /><path
             d="m 2263.75,382.762 64.42,0 39.54,-133.817 0.55,0 27.1,133.817 48.66,0 -40.92,-192.989 -64.14,0 -40.37,133.547 -0.56,0 -26.81,-133.547 -48.67,0 41.2,192.989"
             inkscape:connector-curvature="0"
             id="path64"
             style="fill:#ffffff;fill-opacity:1;fill-rule:nonzero;stroke:none" /><path
             d="m 2463.07,382.762 51.7,0 -15.21,-73.821 61.11,0 15.2,73.821 51.7,0 -40.08,-192.989 -51.71,0 17.14,82.672 -61.1,0 -17.15,-82.672 -51.7,0 40.1,192.989"
             inkscape:connector-curvature="0"
             id="path66"
             style="fill:#ffffff;fill-opacity:1;fill-rule:nonzero;stroke:none" /><path
             d="m 2763.6,339.078 c -9.96,4.699 -23.51,8.848 -42.58,8.848 -20.46,0 -37.05,-3.039 -37.05,-18.524 0,-27.371 74.93,-17.14 74.93,-75.754 0,-53.367 -49.49,-67.187 -94.29,-67.187 -19.9,0 -42.86,4.695 -59.72,9.949 l 12.17,39.266 c 10.23,-6.637 30.69,-11.063 47.55,-11.063 16.04,0 41.2,3.043 41.2,22.949 0,30.969 -74.93,19.356 -74.93,73.821 0,49.769 43.69,64.699 85.99,64.699 23.78,0 46.17,-2.488 59.17,-8.574 l -12.44,-38.43"
             inkscape:connector-curvature="0"
             id="path68"
             style="fill:#ffffff;fill-opacity:1;fill-rule:nonzero;stroke:none" /><path
             d="m 1552.8,85.2188 16.33,0 37.02,-67.5 0.23,0 0,67.5 12,0 0,-83.75005 -15.36,0 -37.98,68.90625 -0.24,0 0,-68.90625 -12,0 0,83.75005"
             inkscape:connector-curvature="0"
             id="path70"
             style="fill:#1478c7;fill-opacity:1;fill-rule:nonzero;stroke:none" /><path
             d="m 1640.21,85.2188 12,0 0,-35.0079 40.04,0 0,35.0079 12,0 0,-83.75005 -12,0 0,38.14065 -40.04,0 0,-38.14065 -12,0 0,83.75005"
             inkscape:connector-curvature="0"
             id="path72"
             style="fill:#1478c7;fill-opacity:1;fill-rule:nonzero;stroke:none" /><path
             d="m 1764.35,72.543 c -6.09,2.3945 -9.46,3.4726 -15.74,3.4726 -6.77,0 -14.75,-2.3945 -14.75,-11.1289 0,-16.0351 36.11,-12.3281 36.11,-39.8515 0,-17.85161 -13.75,-24.9531688 -30.66,-24.9531688 -5.92,0 -11.65,1.6835888 -17.14,3.4921888 l 1.19,11.17188 c 4.07,-1.6758 11.23,-4.0664 17.4,-4.0664 6.88,0 16.54,3.8281 16.54,13.6367 0,18.6719 -36.08,13.5234 -36.08,39.4922 0,14.8594 11.7,22.8008 26.91,22.8008 5.55,0 12.17,-0.961 17.89,-2.9532 l -1.67,-11.1132"
             inkscape:connector-curvature="0"
             id="path74"
             style="fill:#1478c7;fill-opacity:1;fill-rule:nonzero;stroke:none" /><path
             d="m 1834.06,74.5469 -26.05,0 0,10.5937 64.08,0 0,-10.5937 -26.03,0 0,-73.14065 -12,0 0,73.14065"
             inkscape:connector-curvature="0"
             id="path76"
             style="fill:#1478c7;fill-opacity:1;fill-rule:nonzero;stroke:none" /><path
             d="m 1877.44,62.6406 10.52,0 0,-9.5 0.25,0 c 3,6.3555 9.48,10.918 15.96,10.918 3.36,0 5.04,-0.3594 7.44,-0.8398 l 0,-10.0782 c -2.04,0.8399 -4.32,1.0782 -6.24,1.0782 -10.08,0 -16.68,-9.6016 -16.68,-24.961 l 0,-27.85155 -11.25,0 0,61.23435"
             inkscape:connector-curvature="0"
             id="path78"
             style="fill:#1478c7;fill-opacity:1;fill-rule:nonzero;stroke:none" /><path
             d="m 1978.18,1.40625 -10.89,0 0,9.69535 -0.24,0 C 1963.69,4.17578 1955.52,0 1947.01,0 c -15.83,0 -22.89,9.78125 -22.89,26.2461 l 0,36.4101 11.25,0 0,-31.7226 c 0,-14.3008 3.12,-21.26954 12.96,-21.8711 12.84,0 18.6,10.332 18.6,25.2344 l 0,28.3593 11.25,0 0,-61.24995"
             inkscape:connector-curvature="0"
             id="path80"
             style="fill:#1478c7;fill-opacity:1;fill-rule:nonzero;stroke:none" /><path
             d="m 1997.04,13.3867 c 4.43,-2.8828 10.8,-4.3242 14.05,-4.3242 5.16,0 11.54,2.1641 11.54,8.7773 0,11.1836 -26.56,10.2227 -26.56,27.418 0,12.7188 9.49,18.8047 21.64,18.8047 5.29,0 9.61,-1.0742 14.04,-2.3437 l -0.95,-9.8477 c -2.52,1.5625 -9.24,3.1289 -11.89,3.1289 -5.78,0 -10.83,-2.4062 -10.83,-7.457 0,-12.5078 26.55,-8.9024 26.55,-28.5 C 2034.63,5.96094 2024.19,0 2013.26,0 c -5.78,0 -11.66,0.59375 -16.83,3.33594 l 0.61,10.05076"
             inkscape:connector-curvature="0"
             id="path82"
             style="fill:#1478c7;fill-opacity:1;fill-rule:nonzero;stroke:none" /><path
             d="m 2085.06,53.5938 -16.2,0 0,-33.5782 c 0,-7.1015 4.32,-10.9531 9.48,-10.9531 3.49,0 6,1.0781 7.69,2.1641 l 0,-9.55472 C 2083.5,0.953125 2080.02,0 2076.42,0 c -11.62,0 -18.81,5.48438 -18.81,17.7305 l 0,35.8633 -13.8,0 0,9.0624 13.8,0 0,14.1602 11.25,3.5977 0,-17.7579 16.2,0 0,-9.0624"
             inkscape:connector-curvature="0"
             id="path84"
             style="fill:#1478c7;fill-opacity:1;fill-rule:nonzero;stroke:none" /></g></g></g></g></svg>