<?xml version="1.0" encoding="utf-8"?> <!-- Generator: IcoMoon.io --> <!DOCTYPE svg PUBLIC "-//W3C//DTD SVG 1.1//EN" "http://www.w3.org/Graphics/SVG/1.1/DTD/svg11.dtd"> <svg width="416" height="448" viewBox="0 0 416 448" xmlns="http://www.w3.org/2000/svg" xmlns:xlink="http://www.w3.org/1999/xlink"><path style="fill:#888888;" d="M 288,208q0-46.25 -32.875-79.125t-79.125-32.875t-79.125,32.875t-32.875,79.125t 32.875,79.125t 79.125,32.875t 79.125-32.875t 32.875-79.125zM 416,416q0,13 -9.5,22.5t-22.5,9.5q-13.5,0 -22.5-9.5l-85.75-85.5q-44.75,31 -99.75,31q-35.75,0 -68.375-13.875t-56.25-37.5t-37.5-56.25t-13.875-68.375 t 13.875-68.375t 37.5-56.25t 56.25-37.5t 68.375-13.875t 68.375,13.875t 56.25,37.5t 37.5,56.25t 13.875,68.375q0,55 -31,99.75l 85.75,85.75q 9.25,9.25 9.25,22.5z" ></path></svg>